
		<svg xmlns="http://www.w3.org/2000/svg" xmlns:xlink="http://www.w3.org/1999/xlink" version="1.1" width="3206.896551724138" height="1137.9310344827586">
			
			<g transform="scale(10.344827586206897) translate(10, 10)">
				<defs id="SvgjsDefs3881"/><g id="SvgjsG3882" featureKey="root" fill="#fff"/><g id="SvgjsG3883" featureKey="symbol1" fill="#fff" transform="matrix(2.1875,0,0,2.1875,5.21540641784668e-7,10)"><g xmlns="http://www.w3.org/2000/svg" display="none"><rect x="-153.365" y="-18.667" display="inline" fill="#000000" width="473.333" height="236"/></g><g xmlns="http://www.w3.org/2000/svg" display="none"><ellipse transform="matrix(0.7071 -0.7071 0.7071 0.7071 -6.6274 16)" display="inline" cx="16" cy="16" rx="16" ry="16"/><line display="inline" fill="#000000" stroke="#000000" stroke-miterlimit="10" x1="7.837" y1="15.12" x2="15.267" y2="7.69"/><line display="inline" fill="#000000" stroke="#000000" stroke-miterlimit="10" x1="7.968" y1="19.579" x2="20.033" y2="7.514"/><line display="inline" fill="#000000" stroke="#000000" stroke-miterlimit="10" x1="7.759" y1="24.377" x2="24.241" y2="7.896"/><line display="inline" fill="#000000" stroke="#000000" stroke-miterlimit="10" x1="12.518" y1="24.209" x2="24.064" y2="12.662"/><line display="inline" fill="#000000" stroke="#000000" stroke-miterlimit="10" x1="16.83" y1="24.486" x2="24.22" y2="17.096"/></g><g xmlns="http://www.w3.org/2000/svg"><path d="M16,0C11.905,0,7.81,1.562,4.686,4.686c-6.248,6.248-6.248,16.379,0,22.627C7.81,30.438,11.905,32,16,32   c4.095,0,8.19-1.562,11.314-4.686c6.248-6.248,6.248-16.379,0-22.627C24.19,1.562,20.095,0,16,0z M26.607,26.607   C23.773,29.44,20.007,31,16,31s-7.773-1.56-10.607-4.393c-5.849-5.849-5.849-15.365,0-21.213C8.227,2.56,11.993,1,16,1   s7.773,1.56,10.607,4.393C32.455,11.242,32.455,20.758,26.607,26.607z"/><rect x="6.298" y="10.905" transform="matrix(0.7071 -0.7071 0.7071 0.7071 -4.681 11.5091)" width="10.508" height="1"/><rect x="5.469" y="13.046" transform="matrix(0.7071 -0.7071 0.7071 0.7071 -5.4781 13.8675)" width="17.063" height="1"/><rect x="4.346" y="15.637" transform="matrix(0.7071 -0.7071 0.7071 0.7071 -6.7239 16.04)" width="23.307" height="1"/><rect x="10.126" y="17.936" transform="matrix(0.7071 -0.7071 0.7071 0.7071 -7.6786 18.3333)" width="16.33" height="1"/><rect x="15.3" y="20.292" transform="matrix(0.7071 -0.7071 0.7071 0.7071 -8.6902 20.603)" width="10.451" height="1"/></g><g xmlns="http://www.w3.org/2000/svg" display="none"><g display="inline"><path fill="#000000" d="M16,31.5c-4.141,0-8.032-1.612-10.96-4.54S0.5,20.141,0.5,16c0-4.14,1.612-8.033,4.54-10.96    C7.968,2.112,11.859,0.5,16,0.5s8.032,1.612,10.96,4.54C29.888,7.967,31.5,11.86,31.5,16c0,4.141-1.612,8.032-4.54,10.96    S20.141,31.5,16,31.5z"/><g><path fill="#000000" d="M16,1c4.007,0,7.773,1.56,10.607,4.393c5.848,5.849,5.848,15.365,0,21.213C23.773,29.44,20.007,31,16,31     c-4.007,0-7.773-1.56-10.607-4.393c-5.849-5.849-5.849-15.365,0-21.213C8.227,2.56,11.993,1,16,1 M16,0     C11.905,0,7.81,1.562,4.686,4.686c-6.248,6.248-6.248,16.379,0,22.627C7.81,30.438,11.905,32,16,32s8.19-1.562,11.314-4.686     c6.248-6.248,6.248-16.379,0-22.627C24.19,1.562,20.095,0,16,0L16,0z"/></g></g><line display="inline" fill="#000000" stroke="#000000" stroke-miterlimit="10" x1="7.837" y1="15.12" x2="15.267" y2="7.69"/><line display="inline" fill="#000000" stroke="#000000" stroke-miterlimit="10" x1="7.968" y1="19.579" x2="20.033" y2="7.514"/><line display="inline" fill="#000000" stroke="#000000" stroke-miterlimit="10" x1="7.759" y1="24.377" x2="24.241" y2="7.896"/><line display="inline" fill="#000000" stroke="#000000" stroke-miterlimit="10" x1="12.518" y1="24.209" x2="24.064" y2="12.662"/><line display="inline" fill="#000000" stroke="#000000" stroke-miterlimit="10" x1="16.83" y1="24.486" x2="24.22" y2="17.096"/></g><g xmlns="http://www.w3.org/2000/svg" display="none"><path display="inline" d="M4.686,4.686c-6.248,6.248-6.248,16.379,0,22.627c6.248,6.248,16.379,6.248,22.627,0   c6.248-6.248,6.248-16.379,0-22.627C21.065-1.562,10.935-1.562,4.686,4.686z M19.68,7.16l0.707,0.707L8.321,19.933l-0.707-0.707   L19.68,7.16z M14.914,7.336l0.707,0.707l-7.431,7.43l-0.707-0.707L14.914,7.336z M12.871,24.562l-0.707-0.707l11.547-11.547   l0.707,0.707L12.871,24.562z M17.184,24.84l-0.707-0.707l7.39-7.39l0.707,0.707L17.184,24.84z M8.113,24.73l-0.707-0.707   l16.48-16.481l0.707,0.707L8.113,24.73z"/></g></g><g id="SvgjsG3884" featureKey="text1" fill="#fff" transform="matrix(3.879611650485437,0,0,3.879611650485437,87.2842707346944,-27.865003196938524)"><path d="M5.5 9.76 c2.18 0 3.78 1.44 4.38 2.94 l-1.26 0.68 c-0.64 -1.28 -1.66 -2.12 -3.12 -2.12 c-1.54 0 -2.6 0.88 -2.6 2.1 c0 1.14 0.72 1.86 2.24 2.44 l1.02 0.38 c2.52 0.94 4.1 2.02 4.1 4.24 c0 2.4 -2.3 3.88 -4.68 3.88 s-4.34 -1.44 -4.88 -3.44 l1.34 -0.64 c0.48 1.48 1.74 2.56 3.54 2.56 c1.6 0 2.96 -0.92 2.96 -2.34 c0 -1.6 -1.12 -2.2 -2.78 -2.84 l-1.04 -0.4 c-2.12 -0.8 -3.48 -1.9 -3.48 -3.88 c0 -2.04 1.8 -3.56 4.26 -3.56 z M17.48 13.42 c2.36 0 5.22 1.8 5.22 5.38 c0 3.62 -2.86 5.4 -5.22 5.4 c-1.84 0 -3.26 -1 -3.74 -2.2 l0 5.8 l-1.64 0 l0 -6.52 l0 -7.68 l1.64 0 l0 1.96 c0.48 -1.12 1.9 -2.14 3.74 -2.14 z M17.3 22.74 c1.76 0 3.8 -1.3 3.8 -3.94 c0 -2.62 -2.04 -3.92 -3.8 -3.92 c-1.78 0 -3.64 1.26 -3.64 3.92 c0 2.68 1.86 3.94 3.64 3.94 z M29.419999999999998 13.42 c2.36 0 5.52 1.8 5.1 5.98 l-8.78 0 c0.26 2.28 2.04 3.4 3.92 3.4 c1.44 0 2.36 -0.4 3.14 -1.16 l0.96 0.88 c-0.94 1.12 -2.3 1.68 -4.12 1.68 c-2.68 0 -5.54 -1.8 -5.54 -5.38 c0 -3.6 2.96 -5.4 5.32 -5.4 z M29.419999999999998 14.84 c-1.54 0 -3.38 1.1 -3.68 3.34 l7.34 0 c-0.2 -2.24 -2.1 -3.34 -3.66 -3.34 z M41.3 13.42 c1.88 0 3.52 0.86 4.42 2.54 l-1.3 0.56 c-0.66 -1.04 -1.72 -1.64 -3.1 -1.64 c-1.72 0 -3.76 1.3 -3.76 3.94 c0 2.62 2.04 3.9 3.76 3.9 c1.38 0 2.44 -0.58 3.1 -1.62 l1.32 0.56 c-0.92 1.68 -2.56 2.52 -4.44 2.52 c-2.38 0 -5.34 -1.76 -5.34 -5.36 s2.96 -5.4 5.34 -5.4 z M52.199999999999996 14.98 l-2.2 0 l0 6.7 c0 0.62 0.24 1 0.84 1 c0.52 0 0.9 -0.12 1.34 -0.32 l0 1.4 c-0.44 0.22 -0.96 0.36 -1.78 0.36 c-1.06 0 -2.02 -0.48 -2.02 -2.3 l0 -6.84 l-1.44 0 l0 -1.38 l1.44 0 l0 -2.44 l1.62 0 l0 2.44 l2.2 0 l0 1.38 z"/></g>
			</g>
		</svg>
	